<svg xmlns="http://www.w3.org/2000/svg" version="1.1" xmlns:xlink="http://www.w3.org/1999/xlink" xmlns:svgjs="http://svgjs.dev/svgjs" width="1920" height="1200" preserveAspectRatio="none" viewBox="0 0 1920 1200"><g mask="url(&quot;#SvgjsMask1051&quot;)" fill="none"><path d="M298.984,545.225C385.281,543.086,474.823,526.255,522.97,454.605C576.632,374.747,588.462,269.254,540.461,185.87C492.37,102.329,395.361,67.315,298.984,65.51C198.765,63.633,93.459,90.916,41.313,176.521C-12.587,265.006,-4.449,381.282,54.902,466.208C107.407,541.338,207.354,547.496,298.984,545.225" fill="rgba(230, 57, 70, 1)" class="triangle-float1"></path><path d="M1554.295,1252.191C1613.757,1250.374,1653.638,1197.948,1682.49,1145.923C1710.219,1095.921,1729.939,1036.522,1701.362,987C1672.777,937.464,1611.434,921.307,1554.295,923.772C1501.761,926.038,1455.337,954.087,1427.677,998.807C1398.322,1046.266,1386.829,1104.276,1411.774,1154.194C1439.396,1209.47,1492.531,1254.078,1554.295,1252.191" fill="rgba(230, 57, 70, 1)" class="triangle-float1"></path><path d="M831.277,595.19C905.166,593.445,958.611,532.836,994.697,468.334C1029.729,405.717,1049.717,330.716,1014.081,268.442C978.257,205.839,903.325,179.356,831.277,182.758C765.081,185.883,710.377,227.674,676.113,284.399C640.414,343.5,623.074,414.608,653.916,476.383C687.984,544.619,755.03,596.991,831.277,595.19" fill="rgba(230, 57, 70, 1)" class="triangle-float3"></path><path d="M1820.683,964.834C1886.482,964.096,1941.171,921.301,1975.617,865.234C2012.084,805.878,2037.224,731.17,2000.679,671.863C1965.232,614.338,1888.115,609.5,1820.683,613.801C1762.109,617.537,1707.845,642.917,1676.498,692.538C1642.715,746.015,1630.007,812.88,1659.607,868.781C1690.961,927.994,1753.685,965.586,1820.683,964.834" fill="rgba(230, 57, 70, 1)" class="triangle-float3"></path></g><defs><mask id="SvgjsMask1051"><rect width="1920" height="1200" fill="#ffffff"></rect></mask><style>
                @keyframes float1 {
                    0%{transform: translate(0, 0)}
                    50%{transform: translate(-10px, 0)}
                    100%{transform: translate(0, 0)}
                }

                .triangle-float1 {
                    animation: float1 5s infinite;
                }

                @keyframes float2 {
                    0%{transform: translate(0, 0)}
                    50%{transform: translate(-5px, -5px)}
                    100%{transform: translate(0, 0)}
                }

                .triangle-float2 {
                    animation: float2 4s infinite;
                }

                @keyframes float3 {
                    0%{transform: translate(0, 0)}
                    50%{transform: translate(0, -10px)}
                    100%{transform: translate(0, 0)}
                }

                .triangle-float3 {
                    animation: float3 6s infinite;
                }
            </style></defs></svg>